<svg preserveAspectRatio="none" width="100%" height="100%" overflow="visible" style="display: block;" viewBox="0 0 24.4049 24" fill="none" xmlns="http://www.w3.org/2000/svg">
<g id="email">
<path id="&#244;&#128;&#141;&#149;" d="M3.17577 20.7182C2.12392 20.7182 1.33167 20.4552 0.798999 19.9293C0.266333 19.4034 0 18.6212 0 17.5829V6.41712C0 5.37202 0.252848 4.58987 0.758543 4.07069C1.26424 3.54477 1.96884 3.28181 2.87235 3.28181H21.2291C22.2809 3.28181 23.0732 3.54477 23.6059 4.07069C24.1385 4.58987 24.4049 5.37202 24.4049 6.41712V17.5829C24.4049 18.6212 24.152 19.4034 23.6463 19.9293C23.1406 20.4552 22.436 20.7182 21.5325 20.7182H3.17577ZM3.11509 19.1708H21.2797C21.7854 19.1708 22.1731 19.0359 22.4428 18.7662C22.7192 18.4965 22.8574 18.1021 22.8574 17.5829V6.41712C22.8574 5.89794 22.7192 5.5035 22.4428 5.23379C22.1731 4.96409 21.7854 4.82924 21.2797 4.82924H3.11509C2.61613 4.82924 2.22843 4.96409 1.95199 5.23379C1.68228 5.5035 1.54743 5.89457 1.54743 6.40701V17.5728C1.54743 18.0987 1.68228 18.4965 1.95199 18.7662C2.22843 19.0359 2.61613 19.1708 3.11509 19.1708ZM12.1974 14.66C11.8737 14.66 11.5568 14.5993 11.2467 14.4779C10.9365 14.3498 10.6365 14.1543 10.3465 13.8913L0.829341 5.32482L1.88119 4.26286L11.2264 12.6877C11.5366 12.9642 11.8602 13.1024 12.1974 13.1024C12.5413 13.1024 12.8649 12.9642 13.1683 12.6877L22.5136 4.26286L23.5654 5.32482L14.0482 13.8913C13.7583 14.1543 13.4582 14.3498 13.1481 14.4779C12.8379 14.5993 12.521 14.66 12.1974 14.66ZM2.0329 19.4236L0.98105 18.3617L8.16193 11.1808L9.21377 12.2326L2.0329 19.4236ZM22.3821 19.4337L15.181 12.2326L16.2429 11.1808L23.4339 18.3718L22.3821 19.4337Z" fill="var(--fill-0, #4A4A4A)"/>
</g>
</svg>
