<svg preserveAspectRatio="none" width="100%" height="100%" overflow="visible" style="display: block;" viewBox="0 0 457 142" fill="none" xmlns="http://www.w3.org/2000/svg">
<g id="Substrate" filter="url(#filter0_d_0_28)">
<path fill-rule="evenodd" clip-rule="evenodd" d="M22 134C16.4087 134 13.6131 134 11.4078 133.087C8.46746 131.869 6.13138 129.533 4.91345 126.592C4 124.387 4 121.591 4 116V22C4 16.4087 4 13.6131 4.91345 11.4078C6.13138 8.46746 8.46746 6.13138 11.4078 4.91345C13.6131 4 16.4087 4 22 4H431C436.591 4 439.387 4 441.592 4.91345C444.533 6.13138 446.869 8.46746 448.087 11.4078C449 13.6131 449 16.4087 449 22V116C449 121.591 449 124.387 448.087 126.592C446.869 129.533 444.533 131.869 441.592 133.087C439.387 134 436.591 134 431 134H22Z" fill="var(--fill-0, white)"/>
<path d="M431 2C433.768 2 435.945 1.99924 437.702 2.11914C439.477 2.24027 440.971 2.49102 442.357 3.06543C445.788 4.48635 448.514 7.21219 449.935 10.6426C450.509 12.0294 450.76 13.5227 450.881 15.2979C451.001 17.0552 451 19.2317 451 22V116C451 118.768 451.001 120.945 450.881 122.702C450.76 124.477 450.509 125.971 449.935 127.357C448.514 130.788 445.788 133.514 442.357 134.935C440.971 135.509 439.477 135.76 437.702 135.881C435.945 136.001 433.768 136 431 136H22C19.2317 136 17.0552 136.001 15.2979 135.881C13.5227 135.76 12.0294 135.509 10.6426 134.935C7.21219 133.514 4.48635 130.788 3.06543 127.357C2.49102 125.971 2.24027 124.477 2.11914 122.702C1.99924 120.945 2 118.768 2 116V22L2.00196 20.0322C2.00727 18.1698 2.02921 16.6159 2.11914 15.2979C2.24027 13.5227 2.49102 12.0294 3.06543 10.6426C4.48635 7.21219 7.21219 4.48635 10.6426 3.06543C12.0294 2.49102 13.5227 2.24027 15.2979 2.11914C17.0552 1.99924 19.2317 2 22 2H431Z" stroke="var(--stroke-0, #0D0D0D)" stroke-width="4" stroke-linejoin="round"/>
</g>
<defs>
<filter id="filter0_d_0_28" x="0" y="0" width="457" height="142" filterUnits="userSpaceOnUse" color-interpolation-filters="sRGB">
<feFlood flood-opacity="0" result="BackgroundImageFix"/>
<feColorMatrix in="SourceAlpha" type="matrix" values="0 0 0 0 0 0 0 0 0 0 0 0 0 0 0 0 0 0 127 0" result="hardAlpha"/>
<feOffset dx="4" dy="4"/>
<feComposite in2="hardAlpha" operator="out"/>
<feColorMatrix type="matrix" values="0 0 0 0 0.0491699 0 0 0 0 0.0491699 0 0 0 0 0.0491699 0 0 0 1 0"/>
<feBlend mode="normal" in2="BackgroundImageFix" result="effect1_dropShadow_0_28"/>
<feBlend mode="normal" in="SourceGraphic" in2="effect1_dropShadow_0_28" result="shape"/>
</filter>
</defs>
</svg>
