<svg preserveAspectRatio="none" width="100%" height="100%" overflow="visible" style="display: block;" viewBox="0 0 30.2004 30.2008" fill="none" xmlns="http://www.w3.org/2000/svg">
<g id="Group 3">
<circle id="Ellipse 38" cx="15.1002" cy="15.1002" r="15.1002" fill="var(--fill-0, #6F6F6F)"/>
<path id="Head shape" fill-rule="evenodd" clip-rule="evenodd" d="M19.1652 29.6474C17.872 30.008 16.5089 30.2008 15.1007 30.2008C9.19877 30.2008 4.08768 26.8148 1.60397 21.8795C2.34786 18.827 3.72752 15.7519 5.86945 14.15C5.86945 14.15 5.67138 12.853 6.70963 12.3695C8.10221 11.5363 8.98465 12.5627 8.98465 12.5627C11.6324 11.3328 14.0221 11.7877 14.8766 11.9963C15.8711 12.2391 18.1699 12.4636 21.2418 10.5529C24.1917 13.5597 22.1115 16.8725 16.8982 21.2479C13.9814 23.7941 17.8599 29.1417 19.1652 29.6474Z" fill="var(--fill-0, white)"/>
<circle id="Ellipse 39" cx="20.6474" cy="5.23933" r="1.54084" fill="var(--fill-0, #F2CC0D)"/>
<circle id="Ellipse 40" cx="6.16361" cy="9.09135" r="0.616335" fill="var(--fill-0, #F8D74A)"/>
<circle id="Ellipse 41" cx="24.8079" cy="20.0309" r="0.462252" fill="var(--fill-0, #F8D74A)"/>
<path id="neck shape" fill-rule="evenodd" clip-rule="evenodd" d="M15.1007 30.2004C16.5089 30.2004 17.8721 30.0077 19.1653 29.6471C17.8599 29.1413 13.9815 23.7938 16.8983 21.2476C19.2309 19.2898 20.9363 17.5448 21.8445 15.9448C19.6792 17.9525 17.4713 19.6362 15.948 20.7243C15.7632 20.8563 15.5734 20.9892 15.3809 21.124C13.319 22.568 10.9403 24.2338 10.9403 27.4102C10.9403 28.277 10.9863 29.0201 11.066 29.6554C12.3503 30.0106 13.7034 30.2004 15.1007 30.2004Z" fill="var(--fill-0, #E5E5EA)"/>
</g>
</svg>
