<svg preserveAspectRatio="none" width="100%" height="100%" overflow="visible" style="display: block;" viewBox="0 0 48.7676 54.8643" fill="none" xmlns="http://www.w3.org/2000/svg">
<g id="Group">
<path id="Vector" fill-rule="evenodd" clip-rule="evenodd" d="M4.33138 49.1547L3.01291 52.9831L1.66364 49.1547H1.36857e-05L2.0569 54.7523H3.88387L5.95278 49.1547H4.33138ZM14.4017 51.9602C14.4017 51.7616 14.4408 51.5649 14.5169 51.3815C14.5929 51.198 14.7043 51.0313 14.8448 50.8908C14.9853 50.7504 15.152 50.6391 15.3355 50.5631C15.519 50.4872 15.7157 50.4481 15.9143 50.4482C16.3154 50.4482 16.7001 50.6075 16.9837 50.8911C17.2673 51.1748 17.4266 51.5594 17.4266 51.9605C17.4266 52.3616 17.2673 52.7463 16.9837 53.0299C16.7001 53.3135 16.3154 53.4728 15.9143 53.4728C15.7157 53.4729 15.519 53.4338 15.3354 53.3578C15.1519 53.2818 14.9851 53.1703 14.8447 53.0299C14.7042 52.8894 14.5928 52.7226 14.5168 52.5391C14.4408 52.3556 14.4017 52.1589 14.4017 51.9602ZM17.3639 46.8705V49.6198C17.3607 49.618 17.3586 49.6156 17.356 49.6136C16.8967 49.2752 16.3328 49.0632 15.7252 49.0632C14.1777 49.0632 12.9225 50.3546 12.9225 51.9505C12.9225 53.5455 14.1777 54.8385 15.7252 54.8385C16.316 54.8386 16.8909 54.6474 17.3639 54.2933V54.7614H18.8026V46.8711H17.3639V46.8705ZM21.2457 51.9602C21.2457 51.7616 21.2848 51.5649 21.3608 51.3815C21.4369 51.198 21.5483 51.0313 21.6887 50.8908C21.8292 50.7504 21.996 50.6391 22.1795 50.5631C22.363 50.4872 22.5597 50.4481 22.7583 50.4482C23.1594 50.4481 23.5442 50.6074 23.8279 50.8909C24.1117 51.1744 24.2712 51.5591 24.2715 51.9602C24.2637 52.3563 24.1009 52.7335 23.818 53.0109C23.5351 53.2882 23.1547 53.4436 22.7586 53.4436C22.3624 53.4436 21.982 53.2882 21.6992 53.0109C21.4163 52.7335 21.2535 52.3563 21.2457 51.9602ZM24.2087 49.1605V49.6198C24.2055 49.618 24.2029 49.6156 24.2005 49.6136C23.7407 49.2752 23.1773 49.0632 22.5694 49.0632C21.0219 49.0632 19.7674 50.3546 19.7674 51.9505C19.7674 53.5455 21.0219 54.8385 22.5694 54.8385C23.1604 54.8384 23.7354 54.6471 24.2087 54.2933V54.7614H25.6465V49.1608L24.2087 49.1605ZM29.5682 49.1605H28.7072C28.7072 49.1605 28.7031 48.9813 28.7031 48.8209C28.7031 48.4658 28.7031 48.0145 29.2679 48.0145C29.4134 48.0145 29.5539 48.0391 29.5539 48.0391V46.7368C29.5539 46.7368 29.3172 46.7309 29.1553 46.7368C27.8328 46.789 27.2504 47.2409 27.2504 48.5629V49.1608H26.6072V50.4511H27.2504V54.752H28.7075V50.4511H29.5685L29.5682 49.1605ZM38.2782 49.6485C38.6876 49.2758 39.2834 49.0441 39.9248 49.0441C41.2427 49.0441 41.9981 49.8837 42.0034 50.9916L42.004 51.62V54.7526H40.5183V51.4843C40.5183 50.6629 39.9456 50.4121 39.4914 50.4121C39.0749 50.4121 38.2764 50.6423 38.3207 51.6464L38.3213 52.0171V54.7526H36.8333V49.1602H38.2785V49.6485H38.2782ZM44.5142 52.3948C44.584 53.0986 45.1729 53.6104 45.8922 53.6104C46.4614 53.6104 46.8374 53.3857 47.0605 52.9781H48.6151C48.3676 53.8505 47.3869 54.8356 45.9427 54.8356C44.2048 54.8356 42.9793 53.5417 42.9793 51.9444C42.9793 50.3482 44.2931 49.0538 45.9427 49.0538C47.594 49.0538 48.7676 50.4605 48.7676 51.9444C48.7676 52.2538 48.7327 52.3928 48.7327 52.3928L44.5142 52.3948ZM47.1978 51.3127C47.0729 50.6781 46.5403 50.3121 45.8925 50.3121C45.2248 50.3121 44.7022 50.701 44.5518 51.3092L47.1978 51.3127ZM10.2011 49.24C9.93722 49.2973 9.7008 49.4431 9.53109 49.6532C9.36137 49.8633 9.26855 50.125 9.26801 50.3951C9.26801 50.4077 9.27124 50.4221 9.27153 50.4335C10.1129 50.6127 10.5366 51.1793 10.5366 51.9268C10.5366 52.7681 9.84983 53.4482 9.00966 53.4482C8.16948 53.4482 7.38474 52.7476 7.38474 51.7086C7.38474 50.4406 8.47242 49.2502 10.0217 49.213C10.0498 49.2124 10.0938 49.213 10.1393 49.2154C9.78801 49.0823 9.41547 49.0144 9.03986 49.0148C7.37741 49.0148 6.02932 50.3189 6.02932 51.9268C6.02932 53.5362 7.37711 54.8394 9.03986 54.8394C10.7023 54.8394 12.0498 53.5365 12.0498 51.9268C12.0504 50.7165 11.2871 49.6793 10.2011 49.24ZM32.9034 49.0397C31.2412 49.0397 29.8929 50.3432 29.8929 51.9523C29.8929 53.162 30.6559 54.2004 31.7424 54.6397C32.0063 54.5819 32.2426 54.4358 32.4123 54.2256C32.5819 54.0153 32.6748 53.7535 32.6756 53.4834C32.6756 53.4719 32.6726 53.4576 32.6714 53.4455C31.8307 53.267 31.4069 52.6992 31.4069 51.9523C31.4069 51.1127 32.0931 50.4315 32.9333 50.4315C33.7729 50.4315 34.5582 51.1326 34.5582 52.1699C34.5582 53.4391 33.4706 54.6288 31.9207 54.6655C31.8932 54.6672 31.8492 54.6655 31.804 54.6637C32.1448 54.793 32.516 54.8643 32.9037 54.8643C34.5665 54.8643 35.9148 53.5608 35.9148 51.9523C35.9143 50.3432 34.5662 49.0397 32.9034 49.0397ZM33.3609 1.73196C29.2559 2.6299 26.1636 6.28267 26.1636 10.6542C26.1636 10.7486 26.1882 10.8607 26.1899 10.9542C32.6811 12.3349 35.9544 16.7093 35.9544 22.4794C35.9544 28.9621 30.6524 34.2172 24.1703 34.2172C17.6865 34.2172 11.6319 28.8099 11.6319 20.7908C11.6319 11.0017 20.0231 1.81817 31.9817 1.52785C32.1975 1.52287 32.5401 1.53049 32.8885 1.54662C30.2606 0.548678 27.3973 0 24.4034 0C11.5712 0 1.16775 10.0648 1.16775 22.4794C1.16775 34.8937 11.5712 44.9576 24.4034 44.9576C37.2351 44.9576 47.6377 34.8937 47.6377 22.4794C47.6377 13.1363 41.7456 5.1252 33.3609 1.73196Z" fill="var(--fill-0, #4A4A4A)"/>
</g>
</svg>
