<svg preserveAspectRatio="none" width="100%" height="100%" overflow="visible" style="display: block;" viewBox="0 0 54.8643 54.8643" fill="none" xmlns="http://www.w3.org/2000/svg">
<g id="logo">
<rect width="54.8643" height="54.8643" rx="12.8017" fill="var(--fill-0, #4A4A4A)"/>
<path id="Vector" d="M47.1391 22.6029L41.141 33.9018C40.6432 34.8408 39.7735 35.4738 38.9825 35.4738H34.3459C33.058 35.4738 32.5658 33.8945 33.3773 32.3661L33.6401 31.8716L34.5774 30.1064L34.9228 29.4564C35.0106 29.2465 35.0795 29.026 35.1274 28.802C35.4339 27.3612 34.6682 26.2692 33.4783 26.432C32.7049 26.5372 31.9191 27.1445 31.4175 27.9775L31.4149 27.9818L31.2167 28.3545L29.5081 31.5741L28.2545 33.9356C27.7674 34.8541 26.9161 35.4738 26.1418 35.4738H21.6139C20.2593 35.4738 19.7409 33.8125 20.5952 32.2041L20.7814 31.8537L21.7701 29.9902L21.9867 29.5837C22.0766 29.3894 22.1493 29.1875 22.205 28.9781C22.5547 27.6561 22.0295 26.532 21.0048 26.4239C20.0744 26.3256 19.0493 27.0518 18.468 28.0959C18.4672 28.0971 18.4668 28.0982 18.4668 28.0993L18.394 28.2361L16.6319 31.5553L15.335 33.9984C14.8659 34.8823 14.0467 35.4789 13.3011 35.4789H8.77919C7.39715 35.4789 6.86941 33.7843 7.73956 32.1439L13.6375 21.0352C14.1584 20.0534 15.0675 19.3914 15.8953 19.3914H20.5606C21.7453 19.3914 22.3004 20.6873 21.7838 22.161C21.7718 22.1966 21.764 22.2236 21.7603 22.2422C21.5279 23.5073 22.1202 24.4989 23.1261 24.5382C24.0274 24.5724 24.9965 23.8637 25.5554 22.8585C25.5794 22.8163 25.6024 22.7734 25.6243 22.7298L26.417 21.2361L26.42 21.2296L26.5313 21.0228C26.5473 20.9934 26.5638 20.9648 26.581 20.9369C27.1177 20.0517 27.9741 19.4234 28.7942 19.3854H33.3653C34.479 19.4021 35.0799 20.542 34.7093 21.9456C34.6622 22.1168 34.628 22.292 34.6066 22.4713C34.5008 23.3415 34.7833 24.0796 35.371 24.3754C36.3601 24.8711 37.6065 24.1839 38.3242 23.0487L38.6054 22.5187L39.2025 21.3942L39.2029 21.3933L39.4859 20.8599C39.9956 20.0551 40.769 19.4764 41.5279 19.3854H46.1363C47.4699 19.3854 47.9797 21.0206 47.1391 22.6029Z" fill="var(--fill-0, white)"/>
</g>
</svg>
