<svg preserveAspectRatio="none" width="100%" height="100%" overflow="visible" style="display: block;" viewBox="0 0 132.316 16.4593" fill="none" xmlns="http://www.w3.org/2000/svg">
<g id="Group 1780">
<path id="Vector" d="M17.2503 0L16.7568 1.80703H14.0934L14.5905 0H17.2503ZM16.2379 3.76646L13.9047 12.5621H11.245L13.5745 3.76646H16.2379ZM72.2341 12.5621L75.5797 0H82.8078C84.4407 0 85.5945 0.174172 86.2695 0.526144C86.9589 0.878116 87.3072 1.4986 87.3072 2.39123C87.3072 2.86658 87.2129 3.43989 87.0242 4.10392C86.5525 5.92547 85.9102 7.11201 85.0938 7.66355C84.2774 8.2151 82.7534 8.4945 80.5254 8.4945L79.8433 8.51264H76.3344L75.2531 12.5621H72.2341ZM76.8751 6.44072H80.2642C81.6176 6.44072 82.4957 6.32098 82.9021 6.08149C83.3267 5.83112 83.6641 5.23966 83.9145 4.31075C84.0544 3.87034 84.1409 3.41471 84.1721 2.95366C84.1721 2.55089 83.998 2.29326 83.6533 2.18077C83.3231 2.0574 82.6844 1.99209 81.7446 1.99209H78.0507L76.8751 6.44072ZM89.5678 6.31009H86.8827C87.1802 5.22878 87.6774 4.52121 88.3668 4.18375C89.0707 3.83178 90.377 3.65398 92.2748 3.65398C93.8604 3.65398 94.9744 3.79912 95.6167 4.08578C96.2589 4.36155 96.5819 4.86955 96.5819 5.60978C96.5819 5.93635 96.5202 6.33912 96.3932 6.8181L94.8619 12.5621H92.2022L92.6485 11.3574C92.2309 11.8228 91.7049 12.178 91.1172 12.3916C90.5838 12.5803 89.8073 12.6746 88.7877 12.6746C87.5467 12.6746 86.6541 12.544 86.1025 12.2791C85.5691 12.0033 85.3006 11.5461 85.3006 10.9039C85.3006 10.6281 85.3478 10.3197 85.4421 9.98221C85.707 8.96621 86.2005 8.24775 86.9226 7.8341C87.6628 7.40593 88.7696 7.19184 90.2464 7.19184C91.3132 7.19184 92.0607 7.26441 92.4852 7.39867C92.679 7.45439 92.8558 7.55756 92.9996 7.69886C93.1434 7.84015 93.2497 8.01509 93.3089 8.20784L93.7334 6.77455C93.8182 6.50654 93.8658 6.22818 93.875 5.94724C93.875 5.59527 93.7334 5.35578 93.4504 5.22878C93.1674 5.10541 92.6812 5.04009 91.9917 5.04009C91.1281 5.04009 90.5512 5.11629 90.25 5.26506C89.9488 5.41384 89.7239 5.76944 89.5678 6.31009ZM90.8596 8.60698C89.9343 8.60698 89.2884 8.68681 88.9292 8.8501C88.57 9.01338 88.3269 9.33996 88.1999 9.82981C88.1409 10.0065 88.1103 10.1915 88.1091 10.3777C88.1091 10.6898 88.2579 10.9039 88.5555 11.0164C88.853 11.118 89.4009 11.1688 90.2028 11.1688C91.1281 11.1688 91.7813 11.0817 92.1586 10.9039C92.5505 10.7152 92.819 10.3668 92.9606 9.84796C92.9902 9.78293 93.0062 9.71256 93.0077 9.64113V9.45244C93.0077 9.14038 92.8517 8.91904 92.536 8.79204C92.2203 8.66867 91.6615 8.60698 90.8596 8.60698ZM123.393 9.75361H126.031L125.984 9.92416L125.959 10.0185C125.864 10.4647 125.669 10.8834 125.388 11.2425C125.107 11.6016 124.747 11.8916 124.337 12.0904C123.52 12.4787 122.232 12.6746 120.476 12.6746C118.796 12.6746 117.62 12.5186 116.942 12.2029C116.281 11.8908 115.955 11.2849 115.955 10.3959C115.955 9.88061 116.082 9.14038 116.332 8.17155C116.804 6.37541 117.457 5.17798 118.288 4.57564C119.133 3.95878 120.556 3.65398 122.552 3.65398C124.166 3.65398 125.291 3.80275 125.919 4.10755C126.547 4.40872 126.862 4.98566 126.862 5.84201C126.862 6.33187 126.75 6.9959 126.532 7.83773L126.343 8.55256H118.901L118.8 8.89001C118.738 9.1295 118.691 9.32907 118.658 9.49599C118.626 9.65729 118.61 9.82139 118.611 9.98584C118.611 10.414 118.767 10.7079 119.083 10.8712C119.413 11.0236 119.961 11.0962 120.73 11.0962C121.688 11.0962 122.323 11.0164 122.635 10.8494C122.969 10.6825 123.219 10.3197 123.393 9.75361ZM119.271 7.23175H124.076L124.166 6.89067C124.246 6.5387 124.286 6.28107 124.286 6.11778C124.286 5.75492 124.134 5.51544 123.836 5.40295C123.553 5.29046 123.005 5.23241 122.189 5.23241C121.169 5.23241 120.487 5.34852 120.142 5.57349C119.816 5.80209 119.522 6.35364 119.271 7.23175ZM50.2885 3.76646H52.9482L52.4547 4.98929C52.9736 4.48855 53.4816 4.13658 53.9824 3.93701C54.4867 3.73381 55.1145 3.63583 55.8656 3.63583C56.6675 3.63583 57.2554 3.76283 57.6327 4.01321C58.0101 4.26358 58.1988 4.68086 58.1988 5.25781C58.1988 5.62067 58.1262 6.04884 57.9847 6.5387L57.8214 7.18095H55.3249L55.4665 6.70924C55.5337 6.47635 55.5739 6.23649 55.5862 5.99441C55.5862 5.54084 55.2161 5.31586 54.4795 5.31586C53.7574 5.31586 53.2167 5.46827 52.8575 5.76944C52.4947 6.07061 52.2044 6.61127 51.9867 7.38778L50.6187 12.5621H47.9589L50.2885 3.76646ZM44.9654 9.75361H47.6033L47.5562 9.92416L47.5344 10.0185C47.4393 10.4649 47.2434 10.8837 46.9617 11.2428C46.6799 11.6019 46.3198 11.8918 45.9088 12.0904C45.0924 12.4787 43.8078 12.6746 42.048 12.6746C40.368 12.6746 39.1887 12.5186 38.5174 12.2029C37.857 11.8908 37.5268 11.2849 37.5268 10.3959C37.5268 9.88061 37.6538 9.14038 37.9041 8.17155C38.3759 6.37541 39.029 5.17798 39.86 4.57564C40.7054 3.95878 42.1278 3.65398 44.1199 3.65398C45.7382 3.65398 46.8595 3.80275 47.4872 4.10755C48.115 4.40872 48.4307 4.98566 48.4307 5.84201C48.4307 6.33187 48.3218 6.9959 48.1004 7.83773L47.9118 8.55256H40.4732L40.3752 8.89001C40.3188 9.08974 40.2716 9.29194 40.2337 9.49599C40.2017 9.65729 40.1859 9.82139 40.1865 9.98584C40.1865 10.414 40.3426 10.7079 40.6582 10.8712C40.9884 11.0236 41.5364 11.0962 42.3056 11.0962C43.2636 11.0962 43.8986 11.0164 44.2142 10.8494C44.5408 10.6825 44.7948 10.3197 44.9654 9.75361ZM40.8433 7.23175H45.6475L45.7419 6.89067C45.8217 6.5387 45.8616 6.28107 45.8616 6.11778C45.8616 5.75492 45.7128 5.51544 45.4153 5.40295C45.1323 5.29046 44.5844 5.23241 43.7643 5.23241C42.7447 5.23241 42.0625 5.34852 41.7178 5.57349C41.3876 5.80209 41.0973 6.35364 40.8433 7.23175ZM31.8045 0L30.4148 5.21789C30.7915 4.67567 31.3134 4.2506 31.9206 3.99143C32.4867 3.76646 33.2777 3.65398 34.2973 3.65398C35.4149 3.65398 36.2132 3.79912 36.6995 4.08578C37.2038 4.37606 37.4542 4.85141 37.4542 5.51907C37.4542 5.84564 37.3961 6.20124 37.2873 6.59312L35.7125 12.5621H33.0491L34.486 7.15918L34.555 6.8943C34.6185 6.6923 34.6515 6.48194 34.6529 6.27018C34.6529 5.66784 34.1123 5.36667 33.0273 5.36667C32.0222 5.36667 31.2856 5.52269 30.8139 5.83838C30.3422 6.15044 29.9975 6.73101 29.7761 7.57284L28.459 12.5621H25.7992L29.1411 0H31.8045ZM26.173 6.17584H23.6076L23.633 6.00892C23.6449 5.92715 23.6521 5.84477 23.6547 5.76218C23.6547 5.48641 23.5277 5.30861 23.2774 5.23241C23.027 5.15984 22.4936 5.12355 21.6771 5.12355C20.7337 5.12355 20.106 5.18886 19.7939 5.31224C19.6495 5.37074 19.5207 5.46225 19.418 5.57945C19.3153 5.69666 19.2415 5.83628 19.2025 5.98715C19.1396 6.22209 19.1007 6.46281 19.0863 6.70561C19.0863 6.93058 19.2533 7.08298 19.5835 7.15918C19.9137 7.22087 20.6357 7.2499 21.7497 7.2499C23.2592 7.2499 24.3006 7.36238 24.8812 7.59098C25.4763 7.81595 25.7738 8.23687 25.7738 8.8501C25.7715 8.98919 25.7557 9.12772 25.7266 9.26376C25.7037 9.45533 25.6648 9.64467 25.6105 9.82981C25.3239 10.8966 24.7614 11.6405 23.916 12.0541C23.0669 12.4678 21.6699 12.6746 19.725 12.6746C18.1066 12.6746 16.9673 12.5476 16.3105 12.2972C15.6646 12.0324 15.3453 11.5752 15.3453 10.922C15.3453 10.795 15.3525 10.6571 15.3671 10.5084C15.3813 10.3494 15.4129 10.1924 15.4614 10.0403L15.534 9.79716H18.2663L18.1937 10.0802C18.1466 10.2118 18.1221 10.3504 18.1211 10.4902C18.1211 10.7551 18.2699 10.9365 18.5675 11.0381C18.8831 11.1397 19.4238 11.1905 20.1931 11.1905C21.151 11.1905 21.8078 11.1143 22.1706 10.9656C22.5335 10.8132 22.7766 10.5084 22.9 10.0439C22.9424 9.89002 22.9668 9.73171 22.9725 9.57219C22.9725 9.3327 22.8709 9.16941 22.6677 9.08233C22.4754 8.9771 22.1307 8.9263 21.63 8.9263C19.5762 8.9263 18.1828 8.81381 17.4644 8.58884C16.7387 8.36387 16.3794 7.91755 16.3794 7.2499C16.3794 6.99952 16.4266 6.6911 16.5209 6.32824C16.804 5.27232 17.3301 4.56475 18.0994 4.19826C18.8868 3.83178 20.2584 3.65398 22.2214 3.65398C23.7781 3.65398 24.8449 3.76646 25.4255 3.99143C25.6952 4.06933 25.9303 4.23692 26.092 4.46651C26.2536 4.6961 26.3321 4.97395 26.3145 5.25418C26.3145 5.50455 26.2673 5.81298 26.173 6.17584ZM5.82026 1.99572L4.92037 5.40295H11.9163L11.3756 7.4023H4.38334L3.01537 12.5621H2.31659e-05L3.34557 0H13.7306L13.1863 1.99572H5.82026ZM107.558 3.76646L102.188 13.1064C101.433 14.4127 100.686 15.2981 99.9492 15.7625C99.2271 16.227 98.2075 16.4592 96.8903 16.4592H96.5383C96.4352 16.46 96.3322 16.4539 96.2299 16.4411C96.1446 16.4285 96.0585 16.4212 95.9723 16.4193L96.3932 14.8772L96.9121 14.8953C97.4847 14.9132 98.0447 14.7252 98.4905 14.3655C98.9151 14.0136 99.3215 13.4112 99.717 12.5585H98.3744L97.1008 3.76646H99.9274L100.305 7.49301L100.519 9.3581L100.61 10.2979L100.657 11.2196L101.223 10.2979L101.72 9.3581L102.729 7.49301L104.801 3.76646H107.558Z" fill="var(--fill-0, #4A4A4A)"/>
<path id="Vector_2" d="M111.825 0L109.92 7.19184H110.603L114.463 3.76646H117.526L112.606 7.9103L115.973 12.5621H112.7L110.156 8.66504H109.521L108.484 12.5621H105.824L109.166 0H111.825ZM132.316 0L128.974 12.5621H126.314L129.656 0H132.316ZM64.0044 5.67146C65.3688 5.44649 66.6714 5.27232 67.0016 5.19975C67.9886 4.98929 68.268 3.99143 68.3841 3.30926C68.4422 2.96818 68.1446 2.58355 67.858 2.47832C67.5713 2.37672 66.9907 2.32592 66.1199 2.32592C64.9878 2.32592 64.2258 2.41663 63.823 2.59806C63.6525 2.6781 63.5007 2.79312 63.3776 2.93566C63.2544 3.07819 63.1626 3.24505 63.1082 3.42538C62.8143 4.25269 62.7961 4.58652 63.1916 4.96752L63.7577 5.46826L64.0044 5.67146ZM67.535 10.3632L62.9231 6.68747C61.82 6.88341 61.2213 7.03581 60.9056 7.28981C60.6045 7.54018 60.2235 8.18607 59.9803 9.07507C59.9148 9.29655 59.858 9.52048 59.8098 9.74636C59.7536 9.97068 59.7244 10.2009 59.7227 10.4322C59.7227 10.9256 59.9658 11.2413 60.452 11.3792C60.9383 11.5062 61.9253 11.5679 63.413 11.5679C64.7737 11.5679 65.7244 11.4881 66.2687 11.3284C66.7974 11.1778 67.2496 10.8331 67.535 10.3632ZM64.8571 6.36452L68.1846 9.06055L68.3986 8.35661L68.591 7.51841H70.1803L70.115 7.82684L69.9843 8.3929C69.9023 8.69859 69.8091 9.00117 69.7049 9.30004C69.6469 9.48147 69.5344 9.72458 69.3638 10.0221L71.443 11.6695L70.3254 12.5621L68.5692 11.1724C68.0503 11.7675 67.4443 12.1666 66.744 12.3771C66.0582 12.5839 64.9406 12.6855 63.3948 12.6855C61.3628 12.6855 59.9695 12.5476 59.2111 12.2718C58.4527 11.9961 58.0753 11.459 58.0753 10.6571C58.0753 10.4394 58.0898 10.229 58.1189 10.0221C58.1624 9.8153 58.235 9.52501 58.333 9.14764C58.6341 8.05907 58.997 7.31521 59.4288 6.91607C59.857 6.51692 60.5936 6.23389 61.6386 6.07787L62.0849 5.98715C61.5116 5.51906 61.2286 5.08001 61.2286 4.66635C61.2372 4.43924 61.2726 4.21393 61.3338 3.99506C61.6205 2.91012 62.1067 2.17715 62.7925 1.79977C63.4928 1.41152 64.6939 1.21557 66.3993 1.21557C67.6729 1.21557 68.5837 1.34257 69.1243 1.59295C69.6686 1.83243 69.9408 2.27149 69.9408 2.89923C69.9408 3.14598 69.89 3.46529 69.7884 3.84992C69.4981 4.70989 69.1969 5.75492 67.4334 5.98715C66.6569 6.08512 65.6917 6.23027 64.8571 6.36452Z" fill="var(--fill-0, #4A4A4A)"/>
</g>
</svg>
