<svg preserveAspectRatio="none" width="100%" height="100%" overflow="visible" style="display: block;" viewBox="0 0 163.194 16.4602" fill="none" xmlns="http://www.w3.org/2000/svg">
<g id="Group 1783">
<path id="Vector" d="M69.1851 0.0297356C70.4063 0.0281138 77.5508 -0.0570915 78.08 0.145068C78.6907 0.659293 78.6759 1.8536 78.7935 2.52514C79.1612 4.62657 79.2624 6.84228 79.7191 8.92844C80.846 7.40747 83.5603 0.997181 84.5335 0.259963C84.7356 0.106768 84.9003 0.0894275 85.1765 0.0604228C86.1946 -0.0463644 87.3184 0.0206898 88.3474 0.0217501L94.3174 0.0318561C93.8574 1.84094 93.4814 3.89653 93.0896 5.72944L90.8005 16.4293L84.9652 16.4294C85.4144 13.7614 86.0707 11.0493 86.5532 8.37161C86.7486 7.50808 86.9192 6.64156 87.0656 5.7726L82.9647 12.2491C82.2584 13.3677 81.5506 14.527 80.7978 15.6285C80.6023 15.9191 80.2038 16.3498 79.7372 16.3795C78.9658 16.4286 76.1817 16.6247 75.7432 16.0988C75.3604 15.6397 75.0993 13.8595 74.9811 13.2493L74.1037 8.67875C73.9369 7.80954 73.7504 6.63333 73.4777 5.80042C73.2976 7.05243 72.9767 8.49031 72.7274 9.74406L71.4114 16.4274L65.7839 16.4261L67.7194 7.03708C68.1984 4.7255 68.6526 2.32996 69.1851 0.0297356Z" fill="var(--fill-0, #4A4A4A)"/>
<path id="Subtract" d="M38.5095 2.10992C40.2267 2.10893 41.9807 2.07406 43.6911 2.15289C44.8756 2.20753 45.1619 3.09445 44.9773 3.8316C44.4896 5.77806 44.2461 7.75645 43.7077 9.69293C43.5315 10.327 42.9065 10.8849 42.0066 10.9713C40.6264 11.076 39.1271 11.034 37.7361 11.0328C34.8648 11.0203 31.993 11.0221 29.1218 11.0377C28.9756 11.5393 28.847 12.2551 28.8034 12.7652C29.5891 12.8377 30.9486 12.8101 31.7888 12.8101L36.8415 12.8072L43.1433 12.8121C42.8758 14.0158 42.6193 15.221 42.3738 16.4273L30.99 16.4332C29.065 16.4336 27.1451 16.4483 25.2116 16.4156C24.4346 16.4507 22.9339 16.0757 23.0017 15.317C23.1428 13.7497 23.6052 11.8829 23.9226 10.3316L24.7536 6.28082C25.1312 4.44736 24.9857 2.307 28.0788 2.11578L38.5095 2.10992ZM39.1413 5.76617C38.3241 5.66606 36.32 5.69284 35.3806 5.7027C33.7713 5.71954 31.9879 5.67292 30.3962 5.71539C30.1247 6.04187 29.7417 7.39694 30.1638 7.41852C32.3596 7.53082 37.0869 7.47271 38.9861 7.47028C39.2186 7.17814 39.5797 6.01283 39.1413 5.76617Z" fill="var(--fill-0, #4A4A4A)"/>
<path id="Vector_2" d="M50.1676 2.11726C55.3772 2.05058 61.2247 2.07203 66.4377 2.12861C66.1249 3.20135 65.8962 4.58964 65.6268 5.70735L56.6639 5.70966C55.9423 5.71053 52.6855 5.62483 52.2256 5.81165C51.9785 6.1466 51.8715 6.71466 51.9081 7.0939C51.9197 7.21441 51.9209 7.34927 52.0748 7.41732C52.678 7.68385 61.7614 7.29687 63.4915 7.51594C63.9028 7.56796 64.3624 7.67306 64.6735 7.89212C64.9531 8.08904 64.9553 8.51307 64.9557 8.77904C64.9577 9.94297 64.5187 11.2371 64.2779 12.3917C64.0756 13.362 63.9836 14.43 63.6096 15.3657C63.5218 15.589 63.3571 15.7911 63.132 15.9514C62.5512 16.3734 61.7855 16.438 61.0269 16.4307L44.6768 16.4281C44.8501 15.3067 45.1817 13.9524 45.4125 12.8135C47.2187 12.7896 57.8143 12.9569 58.7981 12.7172C59.1464 12.3956 59.1853 11.5294 59.243 11.0811C55.371 10.9687 51.398 11.1816 47.538 11.0344C45.8646 10.9705 45.9962 9.84704 46.2058 8.98763C46.648 7.17518 46.8697 5.2681 47.4163 3.47243C47.7161 2.48739 49.002 2.17421 50.1676 2.11726Z" fill="var(--fill-0, #4A4A4A)"/>
<path id="Vector_3" d="M147.045 2.11644C152.172 2.06448 158.087 2.04596 163.194 2.13279C162.895 3.26472 162.639 4.55845 162.407 5.70616C160.962 5.70629 149.784 5.59445 149.064 5.78451C148.803 5.99833 148.333 7.40727 148.984 7.44775C149.78 7.49722 150.616 7.48537 151.418 7.48268L157.126 7.46534C158.32 7.46279 161.784 7.25395 161.763 8.40248C161.741 9.6808 161.156 11.8374 160.908 13.1642C160.565 14.9953 160.716 16.4314 157.768 16.4306L141.455 16.426C141.679 15.2332 141.961 14.0049 142.214 12.8124C145.195 12.7794 148.215 12.8351 151.195 12.8108C152.429 12.8006 154.544 12.8658 155.7 12.7526C155.825 12.2931 156.065 11.7012 155.973 11.2356C155.955 11.1436 155.813 11.1082 155.705 11.0944C153.548 10.8168 144.496 11.4742 143.373 10.7827C143.086 10.6055 142.874 10.2935 142.856 10.0149C142.809 9.31634 143.886 4.36122 144.166 3.59849C144.281 3.2868 144.418 3.00386 144.712 2.76097C145.341 2.23976 146.16 2.151 147.045 2.11644Z" fill="var(--fill-0, #4A4A4A)"/>
<path id="Vector_4" d="M2.90894 0.0306586C4.75863 0.0163745 6.64964 0.0302842 8.50228 0.0309079L6.84511 8.4762C6.61828 9.61281 6.13058 11.1206 6.12841 12.2279C6.128 12.4259 6.18157 12.5549 6.37247 12.6956C6.68532 12.926 19.3099 12.8089 21.0447 12.8138C20.8372 13.9394 20.5581 15.2985 20.2729 16.4043C20.0784 16.444 3.09239 16.5125 2.0439 16.3934C1.39307 16.3196 0.83691 16.1458 0.444638 15.7357C0.144873 15.4224 -0.00191921 15.0704 1.89413e-05 14.6858C0.00674009 13.3511 0.602884 11.3505 0.882751 9.97272L2.90894 0.0306586Z" fill="var(--fill-0, #4A4A4A)"/>
<path id="Vector_5" d="M103.842 2.11815C105.597 2.10686 107.352 2.11072 109.108 2.12981C108.478 5.09409 108.011 8.09661 107.382 11.0629C107.307 11.4122 107.072 12.4539 107.357 12.6958C108.191 12.8733 111.196 12.812 112.224 12.8112L119.647 12.814C119.346 13.9713 119.163 15.2437 118.877 16.4287L108.109 16.4318C106.462 16.4322 104.635 16.5027 103.015 16.3794C101.291 16.248 101.159 15.0878 101.389 14.0877C102.303 10.1163 102.92 6.083 103.842 2.11815Z" fill="var(--fill-0, #4A4A4A)"/>
<path id="Vector_6" d="M124.088 2.11771C125.841 2.10567 127.594 2.10985 129.346 2.13031C129.287 2.82218 129.015 3.98224 128.876 4.70268L127.937 9.56929C127.795 10.3004 127.374 11.9668 127.544 12.609C127.982 12.9148 131.544 12.8121 132.329 12.8116L139.903 12.815C139.668 13.9882 139.441 15.2702 139.14 16.4265C133.971 16.5042 128.712 16.3948 123.536 16.4091C123.001 16.4106 122.222 16.1201 121.892 15.7988C121.66 15.5759 121.536 15.3009 121.54 15.0185C121.54 14.3181 122.107 11.9409 122.274 11.1093L124.088 2.11771Z" fill="var(--fill-0, #4A4A4A)"/>
<path id="Vector_7" d="M96.0538 2.11894C97.8871 2.10515 99.7205 2.10933 101.554 2.13154C101.183 3.62038 100.884 5.34869 100.574 6.85905L98.6067 16.4277L93.0992 16.4267C94.1847 11.7638 95.0756 6.81807 96.0538 2.11894Z" fill="var(--fill-0, #4A4A4A)"/>
</g>
</svg>
