<svg preserveAspectRatio="none" width="100%" height="100%" overflow="visible" style="display: block;" viewBox="0 0 68.4658 51.7838" fill="none" xmlns="http://www.w3.org/2000/svg">
<g id="6109f7389d92e493e7565417_UX-NZ-Stacked 1" clip-path="url(#clip0_0_44)">
<path id="Vector" d="M3.5812 45.8771H4.63801V51.2915H3.5812L1.11532 47.5072V51.2915H0.0585035V45.8771H1.11532H1.17403L3.5812 49.5449V45.8771Z" fill="var(--fill-0, #4A4A4A)"/>
<path id="Vector_2" d="M10.861 45.8771V46.8669H7.9254V47.9731H9.86287V48.9629H7.9254V50.3017H10.9197V51.2915H7.9254H6.86859V45.8771H10.861Z" fill="var(--fill-0, #4A4A4A)"/>
<path id="Vector_3" d="M13.856 45.8771L14.8541 49.312C15.2064 48.1478 15.4999 46.9833 15.8522 45.8771H16.7329C17.0852 46.9833 17.4374 48.0896 17.731 49.1955L18.7291 45.8771H19.8446L18.142 51.2915H17.32L16.2632 47.8566L15.2651 51.2915H14.3844L12.6818 45.8771H13.856Z" fill="var(--fill-0, #4A4A4A)"/>
<path id="Vector_4" d="M29.8846 45.8771L27.3012 50.36H29.8846V51.2915H25.716L28.2993 46.8086H25.9509V45.8771H29.8846Z" fill="var(--fill-0, #4A4A4A)"/>
<path id="Vector_5" d="M35.8139 45.8771V46.8669H32.8196V47.9731H34.757V48.9629H32.8196V50.3017H35.8139V51.2915H32.8196H31.7628V45.8771H35.8139Z" fill="var(--fill-0, #4A4A4A)"/>
<path id="Vector_6" d="M39.0435 45.8771H40.4528L42.3903 51.2915H41.216L40.7465 49.9526H38.7502L38.2803 51.2915H37.1651L39.0435 45.8771ZM40.4528 49.0794L39.7483 46.9251L39.1023 49.0794H40.4528Z" fill="var(--fill-0, #4A4A4A)"/>
<path id="Vector_7" d="M44.1506 45.8771H45.2663V50.3017H47.967V51.2915H45.2663H44.1506V50.3017V45.8771Z" fill="var(--fill-0, #4A4A4A)"/>
<path id="Vector_8" d="M51.5488 45.8771H52.9577L54.8952 51.2915H53.7209L53.2514 49.9526H51.2551L50.7856 51.2915H49.6699L51.5488 45.8771ZM52.9577 49.0794L52.2532 46.9251L51.6075 49.0794H52.9577Z" fill="var(--fill-0, #4A4A4A)"/>
<path id="Vector_9" d="M60.3561 45.8771H61.4129V51.2915H60.3561L57.8903 47.5072V51.2915H56.8334V45.8771H57.8903H57.949L60.3561 49.5449V45.8771Z" fill="var(--fill-0, #4A4A4A)"/>
<path id="Vector_10" d="M65.64 45.8771C66.4032 45.8771 67.0489 46.1683 67.5775 46.6921C68.1058 47.2163 68.3995 47.8566 68.3995 48.6134C68.3995 49.3702 68.1058 50.0688 67.5775 50.5347C67.0489 51.0003 66.4032 51.3498 65.64 51.3498H64.7593H63.7024V50.4182V46.8669V45.9353H64.7593H65.64V45.8771ZM65.64 50.36C66.6381 50.36 67.4013 49.545 67.4013 48.5552C67.4013 47.5654 66.6381 46.8086 65.64 46.8086H64.7593V50.36H65.64Z" fill="var(--fill-0, #4A4A4A)"/>
<path id="Vector_11" d="M3.99239 0.0582195V25.9075C3.99239 32.4863 8.21965 36.62 14.7367 36.62C21.2537 36.62 25.5396 32.4863 25.5396 25.7911V3.49317C25.5396 1.04795 26.5377 0.0582195 29.0036 0.0582195L34.1702 0V3.49317L30.765 3.55138C29.943 3.55138 29.532 3.9589 29.532 4.77397V26.0822C29.532 34.6405 23.6021 40.3458 14.7954 40.3458C5.9886 40.3458 0 34.6405 0 26.0822V0.0582195H3.99239Z" fill="var(--fill-0, #4A4A4A)"/>
<path id="Vector_12" d="M66.991 3.49329H68.3412V0.00012207H65.9929C62.881 0.00012207 61.5895 0.524096 59.7694 3.14396L54.0155 12.168C52.6066 14.2056 51.256 16.6508 51.256 16.6508C51.256 16.6508 49.9058 14.1474 48.4965 12.168L42.743 3.14396C40.9816 0.524096 39.6898 0.00012207 36.5783 0.00012207H34.2297V3.49329H35.5801C36.8716 3.49329 37.8697 3.66795 38.7504 4.94875L48.6728 20.144L38.7504 35.3974C37.8697 36.6784 36.8129 36.8528 35.5801 36.8528H34.2297V40.3459H36.5783C39.6898 40.3459 40.9816 39.8221 42.8017 37.2022L48.5553 28.1782C49.9646 26.1406 51.3148 23.6953 51.3148 23.6953C51.3148 23.6953 52.6653 26.1988 54.0742 28.1782L59.8282 37.2022C61.6482 39.8221 62.881 40.3459 66.0516 40.3459H68.3999V36.8528H67.0494C65.7579 36.8528 64.7598 36.6784 63.8791 35.3974L53.898 20.144L63.8204 4.94875C64.701 3.66795 65.7579 3.49329 66.991 3.49329Z" fill="var(--fill-0, #4A4A4A)"/>
</g>
<defs>
<clipPath id="clip0_0_44">
<rect width="68.4658" height="51.7838" fill="white"/>
</clipPath>
</defs>
</svg>
