<svg preserveAspectRatio="none" width="100%" height="100%" overflow="visible" style="display: block;" viewBox="0 0 54.8627 54.8645" fill="none" xmlns="http://www.w3.org/2000/svg">
<g id="Group 1781">
<path id="Vector" d="M26.5851 0.0167155C33.8149 -0.235223 40.8479 2.3982 46.1341 7.3365C50.779 11.6342 53.7794 17.4178 54.6175 23.6903C54.6971 24.3029 54.8205 25.1219 54.8442 25.7302C54.8783 26.4941 54.841 27.2723 54.8592 28.034C54.8848 29.1106 54.7635 30.0748 54.6218 31.1372C53.9886 35.9009 52.1062 40.4124 49.1657 44.2133C48.4962 45.0664 47.788 45.8884 47.0432 46.6765C46.6708 47.0755 46.2866 47.3783 45.8905 47.745C41.0719 52.1495 34.828 54.6713 28.3018 54.8485C21.2102 55.0908 14.3028 52.5639 9.04167 47.8026C4.25591 43.4973 1.1468 37.6381 0.264156 31.2617C-0.86137 22.8008 1.62986 14.9614 7.37088 8.67637C8.56519 7.39124 9.88479 6.22853 11.3101 5.20552C15.4355 2.21804 20.3084 0.43275 25.3873 0.0480033C25.7632 0.0165063 26.1935 0.0344238 26.5851 0.0167155Z" fill="var(--fill-0, #4A4A4A)"/>
<path id="Vector_2" d="M41.7563 21.2444C45.1342 20.8424 48.1965 23.26 48.5893 26.639C48.9824 30.018 46.5566 33.0738 43.1765 33.4578C39.8091 33.8404 36.7675 31.4256 36.376 28.0592C35.9846 24.6931 38.391 21.6448 41.7563 21.2444Z" fill="var(--fill-0, white)"/>
<path id="Vector_3" d="M42.2171 22.9506C44.6505 22.8023 46.7426 24.6561 46.8881 27.0897C47.0335 29.5231 45.1772 31.6131 42.7436 31.7556C40.314 31.8978 38.2283 30.0455 38.0831 27.6159C37.9379 25.1866 39.7878 23.0988 42.2171 22.9506Z" fill="var(--fill-0, #4A4A4A)"/>
<path id="Vector_4" d="M42.3828 25.8356C43.2209 25.7801 43.9453 26.4147 44.0004 27.2526C44.0558 28.091 43.421 28.8151 42.5829 28.8702C41.745 28.9253 41.0212 28.2908 40.9658 27.453C40.9107 26.6151 41.545 25.8911 42.3828 25.8356Z" fill="var(--fill-0, white)"/>
<path id="Vector_5" d="M23.5384 21.2298C23.5477 21.2286 23.5569 21.2274 23.5662 21.2261C26.4899 20.98 29.2324 22.8138 30.0157 25.6713C30.2079 26.3728 30.3142 26.9573 29.7422 27.5448C29.1935 28.1084 28.2381 28.0395 27.5132 28.0393L25.8324 28.039L19.7111 28.0417C20.3919 31.5586 24.3686 33.0385 27.0903 30.6097C27.3664 30.3519 27.8964 29.5807 28.2473 29.5549C29.1459 29.4885 29.5487 30.329 28.9921 31.0636C25.6149 35.5205 18.5558 33.5091 18.0148 27.9554C17.6907 24.505 20.1259 21.6392 23.5384 21.2298Z" fill="var(--fill-0, white)"/>
<path id="Vector_6" d="M24.0035 22.9248C26.09 22.9188 27.9588 24.2524 28.4055 26.3282C27.0522 26.3536 25.6306 26.3319 24.2722 26.3321L19.8039 26.3289C19.9467 25.5964 20.2849 24.9696 20.7811 24.4171C21.6639 23.4343 22.6978 22.9919 24.0035 22.9248Z" fill="var(--fill-0, #4A4A4A)"/>
<path id="Vector_7" d="M6.49387 21.2219C6.5153 21.2203 6.53672 21.219 6.55818 21.218C6.75444 21.2078 6.91262 21.2224 7.07462 21.3462C7.5066 21.6763 7.92132 22.1465 8.31517 22.5355L10.7073 24.9151C11.1062 25.3126 11.5342 25.7713 11.9498 26.1433C12.3447 25.7762 12.7724 25.3237 13.1584 24.9365L15.4142 22.6833C15.744 22.3556 16.0906 22.0138 16.4132 21.6806C16.9954 21.0791 17.5123 20.9884 18.0285 21.7626C18.0398 21.9777 18.0339 22.159 18.0271 22.375C17.7737 22.7547 17.1747 23.2877 16.824 23.6424L14.3393 26.1413C13.9753 26.5074 13.4703 26.972 13.1419 27.3508C13.3736 27.6356 13.9753 28.1873 14.2621 28.4766L16.8797 31.1109C17.2507 31.4833 17.7426 31.9019 18.028 32.3289C18.0377 32.555 18.0359 32.7118 18.025 32.9382C17.844 33.2302 17.7301 33.3493 17.4041 33.4431C16.7374 33.5329 16.5419 33.1269 16.1158 32.7104C15.9964 32.5937 15.8818 32.4714 15.763 32.3539L13.1928 29.8014C12.8584 29.468 12.2695 28.8232 11.9401 28.5565C11.6963 28.7391 11.0582 29.4201 10.805 29.671L8.06428 32.3988C7.80893 32.6515 7.36772 33.1667 7.08295 33.3514C6.58378 33.6749 5.78911 33.2942 5.82355 32.6384C5.84436 32.2418 5.98197 32.1081 6.25884 31.8344C6.58106 31.5144 6.90466 31.1942 7.22436 30.8716L10.7484 27.3482C10.3621 26.9408 9.9498 26.5513 9.55263 26.1535L7.17244 23.7633C6.80563 23.3947 6.19232 22.848 5.88827 22.4217C5.80857 22.3099 5.80078 21.9268 5.87146 21.7679C6.00913 21.4585 6.19856 21.3473 6.49387 21.2219Z" fill="var(--fill-0, white)"/>
<path id="Vector_8" d="M35.4109 21.311C35.7773 21.2855 36.1495 21.2704 36.4493 21.5219C36.6259 21.6703 36.7434 21.8964 36.7523 22.1281C36.759 22.3108 36.6983 22.4831 36.5848 22.6257C35.9712 23.3977 34.2786 22.5299 33.7193 24.1687C33.6379 24.4078 33.611 24.6702 33.5828 24.9202C33.493 25.7162 33.5225 26.529 33.5225 27.3291L33.5244 30.8377C33.5249 31.3015 33.5255 31.7651 33.5252 32.2294C33.5249 32.572 33.529 32.9127 33.2566 33.1689C33.0291 33.3827 32.8385 33.3993 32.5473 33.3999C32.525 33.3958 32.5029 33.391 32.4809 33.3859C32.254 33.3308 32.0488 33.1356 31.934 32.9371C31.8512 32.7935 31.8332 32.6881 31.8297 32.5236C31.8181 31.9985 31.8227 31.4688 31.8224 30.9434L31.8216 28.0575C31.8213 26.5406 31.7952 23.6086 31.8504 21.9995C31.867 21.5112 33.0178 20.8774 33.4997 22.0283C34.0885 21.5706 34.6801 21.3953 35.4109 21.311Z" fill="var(--fill-0, white)"/>
</g>
</svg>
